<?xml version="1.0" encoding="UTF-8" standalone="no"?>
<!-- Created with Inkscape (http://www.inkscape.org/) -->

<svg
   width="34"
   height="12"
   viewBox="0 0 34 12"
   version="1.1"
   id="svg1"
   xmlns="http://www.w3.org/2000/svg"
   xmlns:svg="http://www.w3.org/2000/svg">
  <defs
     id="defs1" />
  <g
     id="layer1"
     transform="translate(-7,-10)">
    <path
       d="M 10,7 C 6.676,7 4,9.676 4,13 v 6 c 0,3.324 2.676,6 6,6 h 28 c 3.324,0 6,-2.676 6,-6 V 13 C 44,9.676 41.324,7 38,7 Z m 0,1 h 28 c 2.77,0 5,2.23 5,5 v 6 c 0,2.77 -2.23,5 -5,5 H 10 C 7.23,24 5,21.77 5,19 V 13 C 5,10.23 7.23,8 10,8 Z"
       style="display:none;fill:#ffffff;fill-opacity:0.5;stroke-width:0.884651"
       id="path4" />
    <path
       id="rect4"
       style="display:inline;fill:#ffffff;fill-opacity:1;stroke-width:0.66594"
       d="M 10.749169,10 H 37.250831 C 39.327871,10 41,11.6725 41,13.75 v 4.5 C 41,20.3275 39.327871,22 37.250831,22 H 10.749169 C 8.6721293,22 7,20.3275 7,18.25 v -4.5 C 7,11.6725 8.6721293,10 10.749169,10 Z" />
    <g
       id="path7"
       style="display:none;opacity:1">
      <path
         style="baseline-shift:baseline;display:inline;overflow:visible;vector-effect:none;fill-opacity:0.75;paint-order:stroke fill markers;enable-background:accumulate;stop-color:#000000;stop-opacity:1"
         d="m 26.259766,4.0488281 c -0.560006,0.093691 -1.099259,0.3626301 -1.445313,0.8125 L 18.015625,13.699219 C 16.428681,15.762245 18.022219,19 20.625,19 h 1.269531 l -2.628906,5.78125 c -0.469725,1.033394 0.06124,2.415573 0.910156,2.925781 0.848919,0.510209 2.317658,0.331381 3.009766,-0.568359 l 6.798828,-8.837891 C 31.571319,16.237755 29.977781,13 27.375,13 H 26.105469 L 28.734375,7.21875 C 29.2041,6.1853558 28.673137,4.803177 27.824219,4.2929687 27.399759,4.0378646 26.819771,3.9551369 26.259766,4.0488281 Z"
         id="path1" />
      <path
         style="baseline-shift:baseline;display:inline;overflow:visible;vector-effect:none;fill:#ffffff;paint-order:stroke fill markers;enable-background:accumulate;stop-color:#000000;stop-opacity:1"
         d="M 26.399036,6.0812526 19.600964,14.918747 A 1.2929357,1.2929357 63.784296 0 0 20.625775,17 H 25 l -3.913446,8.609582 a 0.30206272,0.30206272 31.006273 0 0 0.51441,0.309165 l 6.798072,-8.837494 A 1.2929357,1.2929357 63.784296 0 0 27.374225,15 H 23 l 3.913446,-8.6095821 a 0.30206272,0.30206272 31.006273 0 0 -0.51441,-0.3091653 z"
         id="path2" />
    </g>
  </g>
</svg>
