<?xml version="1.0" encoding="UTF-8" standalone="no"?>
<!-- Created with Inkscape (http://www.inkscape.org/) -->

<svg
   width="32"
   height="32"
   viewBox="0 0 32 32"
   version="1.1"
   id="svg1"
   xmlns="http://www.w3.org/2000/svg"
   xmlns:svg="http://www.w3.org/2000/svg">
  <defs
     id="defs1" />
  <g
     id="layer1">
    <path
       id="rect1"
       style="fill:#ffffff;fill-opacity:1;stroke:none;stroke-width:1.17851;stroke-linecap:round;stroke-linejoin:round;stroke-dasharray:none;stroke-opacity:1;paint-order:stroke fill markers"
       d="M 15.166667,6 C 14.705,6 14.333333,6.3716667 14.333333,6.8333333 v 1.0009766 a 8.3333333,8.3333333 0 0 0 -2.926432,1.2141927 h -0.0016 L 10.697266,8.3388672 c -0.326448,-0.3264476 -0.8519381,-0.3264476 -1.1783858,0 l -1.180013,1.180013 c -0.3264476,0.3264477 -0.3264476,0.8519378 0,1.1783858 l 0.7096354,0.709635 A 8.3333333,8.3333333 0 0 0 7.8343099,14.333333 H 6.8333333 C 6.3716667,14.333333 6,14.705 6,15.166667 v 1.666666 c 0,0.461667 0.3716667,0.833334 0.8333333,0.833334 h 1.0009766 a 8.3333333,8.3333333 0 0 0 1.2141927,2.92806 l -0.7096354,0.708007 c -0.3264476,0.326448 -0.3264476,0.851939 0,1.178386 l 1.180013,1.180013 c 0.3264477,0.326448 0.8519378,0.326448 1.1783858,0 l 0.709635,-0.709635 a 8.3333333,8.3333333 0 0 0 2.926432,1.214192 v 1.000977 C 14.333333,25.628333 14.705,26 15.166667,26 h 1.666666 c 0.461667,0 0.833334,-0.371667 0.833334,-0.833333 V 24.16569 a 8.3333333,8.3333333 0 0 0 2.926432,-1.214192 h 0.0016 l 0.708007,0.709635 c 0.326448,0.326448 0.851939,0.326448 1.178386,0 l 1.180013,-1.180013 c 0.326448,-0.326447 0.326448,-0.851938 0,-1.178386 L 22.95147,20.594727 a 8.3333333,8.3333333 0 0 1 0,-0.0016 8.3333333,8.3333333 0 0 0 1.214192,-2.926432 h 1.000977 C 25.628333,17.666667 26,17.295 26,16.833333 V 15.166667 C 26,14.705 25.628333,14.333333 25.166667,14.333333 H 24.16569 a 8.3333333,8.3333333 0 0 0 -1.214192,-2.92806 l 0.709635,-0.708007 c 0.326448,-0.326448 0.326448,-0.8519381 0,-1.1783858 L 22.48112,8.3388672 c -0.326447,-0.3264476 -0.851938,-0.3264476 -1.178386,0 l -0.708007,0.7096354 a 8.3333333,8.3333333 0 0 1 -0.0016,0 8.3333333,8.3333333 0 0 0 -2.926432,-1.2141927 V 6.8333333 C 17.666667,6.3716667 17.295,6 16.833333,6 Z M 16,11.511068 A 4.4883677,4.4883677 0 0 1 20.488932,16 4.4883677,4.4883677 0 0 1 16,20.488932 4.4883677,4.4883677 0 0 1 11.511068,16 4.4883677,4.4883677 0 0 1 16,11.511068 Z" />
    <circle
       style="fill:#ffffff;fill-opacity:1;stroke:none;stroke-width:1.66667;stroke-linecap:round;stroke-linejoin:round;stroke-dasharray:none;stroke-opacity:1;paint-order:stroke fill markers"
       id="path16"
       cx="16"
       cy="16"
       r="1.6666666" />
  </g>
</svg>
