<?xml version="1.0" encoding="UTF-8" standalone="no"?>
<!-- Created with Inkscape (http://www.inkscape.org/) -->

<svg
   width="32"
   height="32"
   viewBox="0 0 32 32"
   version="1.1"
   id="svg1"
   sodipodi:docname="settings.svg"
   inkscape:version="1.4.2 (ebf0e940d0, 2025-05-08)"
   xmlns:inkscape="http://www.inkscape.org/namespaces/inkscape"
   xmlns:sodipodi="http://sodipodi.sourceforge.net/DTD/sodipodi-0.dtd"
   xmlns="http://www.w3.org/2000/svg"
   xmlns:svg="http://www.w3.org/2000/svg">
  <sodipodi:namedview
     id="namedview1"
     pagecolor="#808080"
     bordercolor="#000000"
     borderopacity="0.25"
     inkscape:showpageshadow="2"
     inkscape:pageopacity="0.0"
     inkscape:pagecheckerboard="true"
     inkscape:deskcolor="#d1d1d1"
     inkscape:document-units="px"
     showgrid="true"
     inkscape:zoom="3.5415442"
     inkscape:cx="-103.06239"
     inkscape:cy="-0.42354406"
     inkscape:window-width="1826"
     inkscape:window-height="972"
     inkscape:window-x="0"
     inkscape:window-y="0"
     inkscape:window-maximized="1"
     inkscape:current-layer="layer1">
    <inkscape:grid
       id="grid1"
       units="px"
       originx="0"
       originy="0"
       spacingx="1"
       spacingy="1"
       empcolor="#ffffff"
       empopacity="0.30196078"
       color="#ffffff"
       opacity="0.10196078"
       empspacing="4"
       enabled="true"
       visible="true" />
  </sodipodi:namedview>
  <defs
     id="defs1" />
  <g
     inkscape:label="Layer 1"
     inkscape:groupmode="layer"
     id="layer1">
    <rect
       style="fill:none;stroke:#ffffff;stroke-width:2;stroke-linecap:round;stroke-opacity:1"
       id="rect1"
       width="22"
       height="8"
       x="5"
       y="6"
       ry="3.9394276" />
    <circle
       style="fill:#ffffff;fill-opacity:1;stroke:none;stroke-width:1.33333;stroke-linecap:round;stroke-dasharray:none;stroke-opacity:1"
       id="path3"
       cx="9"
       cy="10"
       r="2" />
    <path
       id="rect3"
       style="fill:#ffffff;fill-opacity:1;stroke:none;stroke-width:2;stroke-linecap:round;stroke-dasharray:none;stroke-opacity:1"
       d="M 9 17 C 6.23 17 4 19.23 4 22 C 4 24.77 6.23 27 9 27 L 23 27 C 25.77 27 28 24.77 28 22 C 28 19.23 25.77 17 23 17 L 9 17 z M 23 20 A 2 2 0 0 1 25 22 A 2 2 0 0 1 23 24 A 2 2 0 0 1 21 22 A 2 2 0 0 1 23 20 z " />
  </g>
</svg>
