<svg xmlns="http://www.w3.org/2000/svg" height="48px" viewBox="0 -960 960 960" width="48px" fill="#ffffff"><path d="M479.61-84q-81.4 0-153.42-31.45-72.02-31.44-125.65-85.06-53.63-53.62-85.09-125.75Q84-398.39 84-480q0-81.99 31.19-153.98 31.2-72 85.66-126.79l41 42q-46.18 44.78-72.82 106.42-26.64 61.64-26.64 132.02 0 140.41 99.01 239.18 99.01 98.76 238.6 98.76 140.2 0 238.91-99.01 98.7-99.01 98.7-238.6 0-70.85-26.33-132.42-26.33-61.57-72.51-106.35l42-42q53.69 54.69 84.46 126.74Q876-561.99 876-479.43q0 80.97-30.82 152.76-30.81 71.79-84.69 125.72-53.89 53.92-126.25 85.44Q561.88-84 479.61-84Zm-28.3-350v-442h58.38v442h-58.38Z"/></svg>