<svg xmlns="http://www.w3.org/2000/svg" height="48px" viewBox="0 -960 960 960" width="48px" fill="#ffffff"><path d="M484.19-94q-80.96 0-151.83-30.37-70.87-30.37-124.25-83.74-53.37-53.38-83.74-124.48Q94-403.69 94-484q0-118.15 64.85-215.92 64.84-97.77 175.07-142.46 19.08-8.77 37.5 1.5T390-810.15q0 83.69 30.85 161 30.84 77.31 90.92 136.77 59.2 60.07 136.56 91.03 77.36 30.97 161.05 29.97 17.46.15 28.62 17.88 11.15 17.73 4.38 36.19-41.92 111.23-140.07 177.27Q604.15-94 484.19-94Zm-.19-58.39q92.92 0 169.5-49.53 76.58-49.54 124.65-130.46-86.84-9-166.3-43.27-79.47-34.27-141.2-96.89-63.11-61.23-96.88-140-33.77-78.77-42.39-165Q250.46-731.08 201.42-654q-49.03 77.08-49.03 170 0 138.49 96.56 235.05T484-152.39Zm-13.85-320.15Z"/></svg>