<?xml version="1.0" encoding="UTF-8"?>
<!-- Created with Inkscape (http://www.inkscape.org/) -->
<svg width="32" height="32" version="1.1" viewBox="0 0 32 32" xml:space="preserve" xmlns="http://www.w3.org/2000/svg"><g fill="#fff" stroke-linecap="round" stroke-linejoin="round" stroke-opacity=".5"><g><g stroke-width="2.9034"><path d="m17.044 21.497a1.4517 1.4517 45 0 1 0 2.053 1.4517 1.4517 45 0 1-2.053 0 1.4517 1.4517 45 0 1 0-2.053 1.4517 1.4517 45 0 1 2.053 0z" display="none" style="paint-order:stroke fill markers"/><path d="m23.203 15.338a1.4517 1.4517 45 0 1 0 2.053 1.4517 1.4517 45 0 1-2.053 0 7.2585 7.2585 45 0 0-10.265 0 1.4517 1.4517 45 0 1-2.053 0 1.4517 1.4517 45 0 1 0-2.053 1.4517 1.4517 45 0 1 0.15037-0.13032 10.162 10.162 45 0 1 14.066-4e-3 1.4517 1.4517 45 0 1 0.15438 0.13433z" display="none" style="paint-order:stroke fill markers"/><path d="m20.124 18.418a1.4517 1.4517 45 0 1 0 2.053 1.4517 1.4517 45 0 1-2.053 0 2.9034 2.9034 45 0 0-4.106 0 1.4517 1.4517 45 0 1-2.053 0 1.4517 1.4517 45 0 1 0-2.053 1.4517 1.4517 45 0 1 0.15237-0.13232 5.8068 5.8068 45 0 1 7.9053-2e-3 1.4517 1.4517 45 0 1 0.15438 0.13433z" display="none" style="paint-order:stroke fill markers"/><path d="m26.283 12.259a1.4517 1.4517 45 0 1 0 2.053 1.4517 1.4517 45 0 1-2.053 0 11.614 11.614 45 0 0-16.424 0 1.4517 1.4517 45 0 1-2.053 0 1.4517 1.4517 45 0 1 0-2.053 1.4517 1.4517 45 0 1 0.15037-0.13032 14.517 14.517 45 0 1 20.225-4e-3 1.4517 1.4517 45 0 1 0.15438 0.13433z" display="none" style="paint-order:stroke fill markers"/></g><path d="m23.293 7.293-16 16a1 1 0 0 0 0 1.4141 1 1 0 0 0 1.4141 0l16-16a1 1 0 0 0 0-1.4141 1 1 0 0 0-1.4141 0z" display="none" stop-color="#000000" stroke="#000" stroke-width="4" style="paint-order:stroke fill markers"/></g><path d="m16 7.9102c-2.6818 0-5.3633 1.423-5.3633 4.2715a1 1 0 0 0 1 1 1 1 0 0 0 1-1c0-3.0303 6.7266-3.0303 6.7266 0 0 1.8485-0.77651 2.4976-1.6289 2.9238-0.8524 0.4262-1.7344 0.44141-1.7344 0.44141a1.0001 1.0001 0 0 0-1 1v1.4531a1 1 0 0 0 1 1 1 1 0 0 0 1-1v-0.70117c0.49877-0.0556 0.80517 0.0076 1.6289-0.4043 1.3294-0.66471 2.7344-2.1977 2.7344-4.7129 0-2.8485-2.6815-4.2715-5.3633-4.2715z" stop-color="#000000" stroke="#000" stroke-width="4" style="paint-order:stroke fill markers"/></g></svg>
