<?xml version="1.0" encoding="UTF-8"?>
<!-- Created with Inkscape (http://www.inkscape.org/) -->
<svg width="32" height="32" version="1.1" viewBox="0 0 32 32" xml:space="preserve" xmlns="http://www.w3.org/2000/svg"><g fill="#fff" stroke-linecap="round" stroke-linejoin="round" stroke-opacity=".5" stroke-width="2.9034"><path d="m17.044 21.497a1.4517 1.4517 45 0 1 0 2.053 1.4517 1.4517 45 0 1-2.053 0 1.4517 1.4517 45 0 1 0-2.053 1.4517 1.4517 45 0 1 2.053 0z" style="paint-order:stroke fill markers"/><path d="m23.203 15.338a1.4517 1.4517 45 0 1 0 2.053 1.4517 1.4517 45 0 1-2.053 0 7.2585 7.2585 45 0 0-10.265 0 1.4517 1.4517 45 0 1-2.053 0 1.4517 1.4517 45 0 1 0-2.053 1.4517 1.4517 45 0 1 0.15037-0.13032 10.162 10.162 45 0 1 14.066-4e-3 1.4517 1.4517 45 0 1 0.15438 0.13433z" style="paint-order:stroke fill markers"/><path d="m20.124 18.418a1.4517 1.4517 45 0 1 0 2.053 1.4517 1.4517 45 0 1-2.053 0 2.9034 2.9034 45 0 0-4.106 0 1.4517 1.4517 45 0 1-2.053 0 1.4517 1.4517 45 0 1 0-2.053 1.4517 1.4517 45 0 1 0.15237-0.13232 5.8068 5.8068 45 0 1 7.9053-2e-3 1.4517 1.4517 45 0 1 0.15438 0.13433z" style="paint-order:stroke fill markers"/><path d="m26.283 12.259a1.4517 1.4517 45 0 1 0 2.053 1.4517 1.4517 45 0 1-2.053 0 11.614 11.614 45 0 0-16.424 0 1.4517 1.4517 45 0 1-2.053 0 1.4517 1.4517 45 0 1 0-2.053 1.4517 1.4517 45 0 1 0.15037-0.13032 14.517 14.517 45 0 1 20.225-4e-3 1.4517 1.4517 45 0 1 0.15438 0.13433z" style="paint-order:stroke fill markers"/></g></svg>
