<?xml version="1.0" encoding="UTF-8" standalone="no"?>
<!-- Created with Inkscape (http://www.inkscape.org/) -->

<svg
   width="32"
   height="32"
   viewBox="0 0 32 32"
   version="1.1"
   id="svg1"
   xmlns="http://www.w3.org/2000/svg"
   xmlns:svg="http://www.w3.org/2000/svg">
  <defs
     id="defs1" />
  <g
     id="layer1"
     style="display:inline">
    <rect
       style="display:inline;fill:#ffffff;fill-opacity:0.2;stroke-width:8;stroke-linecap:round;stroke-linejoin:round;paint-order:stroke fill markers"
       id="rect4"
       width="26"
       height="16"
       x="3"
       y="8"
       ry="4" />
    <rect
       style="display:inline;fill:#ffffff;fill-opacity:0.5;stroke-width:8;stroke-linecap:round;stroke-linejoin:round;paint-order:stroke fill markers"
       id="rect5"
       width="2"
       height="8"
       x="30"
       y="12"
       ry="1" />
  </g>
  <g
     id="layer2"
     style="display:inline">
    <rect
       style="display:none;fill:#ffffff;fill-opacity:1;stroke-width:2.97891;stroke-linecap:round;stroke-linejoin:round;paint-order:stroke fill markers"
       id="rect8"
       width="22"
       height="12"
       x="5"
       y="10"
       ry="2" />
    <path
       id="rect10"
       style="display:none;fill:#ffffff;fill-opacity:1;stroke-width:2.97891;stroke-linecap:round;stroke-linejoin:round;paint-order:stroke fill markers"
       d="M 6,10.265625 C 5.401339,10.61045 5,11.256787 5,12 v 8 c 0,0.743213 0.401339,1.38955 1,1.734375 z" />
    <path
       id="rect11"
       style="display:none;fill:#ffffff;fill-opacity:1;stroke-width:2.97891;stroke-linecap:round;stroke-linejoin:round;paint-order:stroke fill markers"
       d="m 7,10 c -1.108,0 -2,0.892 -2,2 v 8 c 0,1.108 0.892,2 2,2 z" />
    <path
       id="rect16"
       style="display:none;fill:#ffffff;fill-opacity:1;stroke-width:1.27021;stroke-linecap:round;stroke-linejoin:round;paint-order:stroke fill markers"
       d="m 7,10 c -1.108,0 -2,0.892 -2,2 v 8 c 0,1.108 0.892,2 2,2 0.3647875,0 0.7061621,-0.09638 1,-0.265625 V 10.265625 C 7.7061621,10.096376 7.3647875,10 7,10 Z" />
    <rect
       style="display:none;fill:#ffffff;fill-opacity:1;stroke-width:1.27022;stroke-linecap:round;stroke-linejoin:round;paint-order:stroke fill markers"
       id="rect19"
       width="4"
       height="12"
       x="5"
       y="10"
       ry="2" />
    <rect
       style="display:none;fill:#ffffff;fill-opacity:1;stroke-width:1.42015;stroke-linecap:round;stroke-linejoin:round;paint-order:stroke fill markers"
       id="rect20"
       width="5"
       height="12"
       x="5"
       y="10"
       ry="2" />
    <rect
       style="display:none;fill:#ffffff;fill-opacity:1;stroke-width:1.5557;stroke-linecap:round;stroke-linejoin:round;paint-order:stroke fill markers"
       id="rect21"
       width="6"
       height="12"
       x="5"
       y="10"
       ry="2" />
    <rect
       style="display:none;fill:#ffffff;fill-opacity:1;stroke-width:1.68035;stroke-linecap:round;stroke-linejoin:round;paint-order:stroke fill markers"
       id="rect22"
       width="7"
       height="12"
       x="5"
       y="10"
       ry="2" />
    <rect
       style="display:none;fill:#ffffff;fill-opacity:1;stroke-width:1.79637;stroke-linecap:round;stroke-linejoin:round;paint-order:stroke fill markers"
       id="rect23"
       width="8"
       height="12"
       x="5"
       y="10"
       ry="2" />
    <rect
       style="display:none;fill:#ffffff;fill-opacity:1;stroke-width:1.90534;stroke-linecap:round;stroke-linejoin:round;paint-order:stroke fill markers"
       id="rect24"
       width="9"
       height="12"
       x="5"
       y="10"
       ry="2" />
    <rect
       style="display:none;fill:#ffffff;fill-opacity:1;stroke-width:2.0084;stroke-linecap:round;stroke-linejoin:round;paint-order:stroke fill markers"
       id="rect25"
       width="10"
       height="12"
       x="5"
       y="10"
       ry="2" />
    <rect
       style="display:none;fill:#ffffff;fill-opacity:1;stroke-width:2.10643;stroke-linecap:round;stroke-linejoin:round;paint-order:stroke fill markers"
       id="rect26"
       width="11"
       height="12"
       x="5"
       y="10"
       ry="2" />
    <rect
       style="display:none;fill:#ffffff;fill-opacity:1;stroke-width:2.20009;stroke-linecap:round;stroke-linejoin:round;paint-order:stroke fill markers"
       id="rect27"
       width="12"
       height="12"
       x="5"
       y="10"
       ry="2" />
    <rect
       style="display:none;fill:#ffffff;fill-opacity:1;stroke-width:2.28993;stroke-linecap:round;stroke-linejoin:round;paint-order:stroke fill markers"
       id="rect28"
       width="13"
       height="12"
       x="5"
       y="10"
       ry="2" />
    <rect
       style="display:none;fill:#ffffff;fill-opacity:1;stroke-width:2.37637;stroke-linecap:round;stroke-linejoin:round;paint-order:stroke fill markers"
       id="rect29"
       width="14"
       height="12"
       x="5"
       y="10"
       ry="2" />
    <rect
       style="display:none;fill:#ffffff;fill-opacity:1;stroke-width:2.45978;stroke-linecap:round;stroke-linejoin:round;paint-order:stroke fill markers"
       id="rect30"
       width="15"
       height="12"
       x="5"
       y="10"
       ry="2" />
    <rect
       style="display:none;fill:#ffffff;fill-opacity:1;stroke-width:2.54045;stroke-linecap:round;stroke-linejoin:round;paint-order:stroke fill markers"
       id="rect31"
       width="16"
       height="12"
       x="5"
       y="10"
       ry="2" />
    <rect
       style="display:none;fill:#ffffff;fill-opacity:1;stroke-width:2.61864;stroke-linecap:round;stroke-linejoin:round;paint-order:stroke fill markers"
       id="rect32"
       width="17"
       height="12"
       x="5"
       y="10"
       ry="2" />
    <rect
       style="display:none;fill:#ffffff;fill-opacity:1;stroke-width:2.69456;stroke-linecap:round;stroke-linejoin:round;paint-order:stroke fill markers"
       id="rect33"
       width="18"
       height="12"
       x="5"
       y="10"
       ry="2" />
    <rect
       style="display:none;fill:#ffffff;fill-opacity:1;stroke-width:2.7684;stroke-linecap:round;stroke-linejoin:round;paint-order:stroke fill markers"
       id="rect34"
       width="19"
       height="12"
       x="5"
       y="10"
       ry="2" />
    <rect
       style="display:none;fill:#ffffff;fill-opacity:1;stroke-width:2.84032;stroke-linecap:round;stroke-linejoin:round;paint-order:stroke fill markers"
       id="rect35"
       width="20"
       height="12"
       x="5"
       y="10"
       ry="2" />
    <rect
       style="display:inline;fill:#ffffff;fill-opacity:1;stroke-width:2.91046;stroke-linecap:round;stroke-linejoin:round;paint-order:stroke fill markers"
       id="rect36"
       width="21"
       height="12"
       x="5"
       y="10"
       ry="2" />
    <rect
       style="display:none;fill:#ffffff;fill-opacity:1;stroke-width:2.97895;stroke-linecap:round;stroke-linejoin:round;paint-order:stroke fill markers"
       id="rect37"
       width="22"
       height="12"
       x="5"
       y="10"
       ry="2" />
  </g>
  <g
     id="layer3"
     style="display:inline">
    <path
       style="display:none;fill:#ffffff;fill-opacity:1;stroke:#000000;stroke-width:5.65685;stroke-linecap:round;stroke-linejoin:round;stroke-dasharray:none;stroke-opacity:0.5;paint-order:stroke fill markers"
       d="M 16,6 8,17 h 10 l -2,9 8,-11 H 14 Z"
       id="path37" />
    <path
       id="path38"
       style="display:none;fill:#ffffff;fill-opacity:1;stroke:#000000;stroke-width:4;stroke-linecap:round;stroke-linejoin:round;stroke-dasharray:none;stroke-opacity:0.5;paint-order:stroke fill markers"
       d="m 16,6 c -4,0 -4,4 -4,4 l 3,10 c 0,0 0,1 1,1 1,0 1,-1 1,-1 l 3,-10 c 0,0 0,-4 -4,-4 z m 0,16 c -1.104569,0 -2,0.895431 -2,2 0,1.104569 0.895431,2 2,2 1.104569,0 2,-0.895431 2,-2 0,-1.104569 -0.895431,-2 -2,-2 z" />
  </g>
</svg>
