<?xml version="1.0" encoding="UTF-8" standalone="no"?>
<!-- Created with Inkscape (http://www.inkscape.org/) -->

<svg
   width="32"
   height="32"
   viewBox="0 0 32 32"
   version="1.1"
   id="svg1"
   inkscape:version="1.4.2 (ebf0e940d0, 2025-05-08)"
   sodipodi:docname="SaveFile.svg"
   xml:space="preserve"
   xmlns:inkscape="http://www.inkscape.org/namespaces/inkscape"
   xmlns:sodipodi="http://sodipodi.sourceforge.net/DTD/sodipodi-0.dtd"
   xmlns="http://www.w3.org/2000/svg"
   xmlns:svg="http://www.w3.org/2000/svg"><sodipodi:namedview
     id="namedview1"
     pagecolor="#252525"
     bordercolor="#000000"
     borderopacity="0.25"
     inkscape:showpageshadow="2"
     inkscape:pageopacity="0.0"
     inkscape:pagecheckerboard="true"
     inkscape:deskcolor="#d1d1d1"
     inkscape:document-units="px"
     showgrid="true"
     inkscape:zoom="9.8166017"
     inkscape:cx="18.794691"
     inkscape:cy="31.63009"
     inkscape:window-width="1820"
     inkscape:window-height="966"
     inkscape:window-x="0"
     inkscape:window-y="0"
     inkscape:window-maximized="1"
     inkscape:current-layer="layer1"
     showguides="true"
     inkscape:lockguides="true"><inkscape:grid
       id="grid4"
       units="px"
       originx="0"
       originy="0"
       spacingx="1"
       spacingy="1"
       empcolor="#ffffff"
       empopacity="0.30196078"
       color="#ffffff"
       opacity="0.14901961"
       empspacing="4"
       enabled="true"
       visible="true"
       dotted="true" /><sodipodi:guide
       position="15,24"
       orientation="0,-1"
       id="guide1"
       inkscape:locked="true" /><sodipodi:guide
       position="12,8"
       orientation="0,-1"
       id="guide2"
       inkscape:locked="true" /></sodipodi:namedview><defs
     id="defs1"><inkscape:path-effect
       effect="fillet_chamfer"
       id="path-effect15"
       is_visible="true"
       lpeversion="1"
       nodesatellites_param="F,0,0,1,0,0,0,1 @ F,0,1,1,0,0.97534864,0,1 @ F,0,0,1,0,0,0,1 @ F,0,0,1,0,0,0,1 @ F,0,0,1,0,0,0,1 @ F,0,0,1,0,0.97534864,0,1 | F,0,0,1,0,0,0,1 @ F,0,0,1,0,0,0,1 @ F,0,0,1,0,0,0,1 @ F,0,0,1,0,0,0,1 @ F,0,0,1,0,0,0,1 @ F,0,0,1,0,0,0,1 | F,0,0,1,0,0,0,1 @ F,0,0,1,0,0,0,1 @ F,0,1,1,0,0.97534864,0,1 @ F,0,0,1,0,0,0,1"
       radius="0"
       unit="px"
       method="auto"
       mode="F"
       chamfer_steps="1"
       flexible="false"
       use_knot_distance="true"
       apply_no_radius="true"
       apply_with_radius="true"
       only_selected="false"
       hide_knots="false" /><inkscape:path-effect
       effect="fillet_chamfer"
       id="path-effect14"
       is_visible="true"
       lpeversion="1"
       nodesatellites_param="F,0,0,1,0,0,0,1 @ F,0,0,1,0,0,0,1 @ F,0,0,1,0,0,0,1 @ F,0,0,1,0,0,0,1 @ F,0,0,1,0,0,0,1 @ F,0,0,1,0,0,0,1"
       radius="0"
       unit="px"
       method="auto"
       mode="F"
       chamfer_steps="1"
       flexible="false"
       use_knot_distance="true"
       apply_no_radius="true"
       apply_with_radius="true"
       only_selected="false"
       hide_knots="false" /></defs><g
     inkscape:label="Layer 1"
     inkscape:groupmode="layer"
     id="layer1"><path
       d="m 17.044116,21.497232 a 1.4517006,1.4517005 45 0 1 0,2.053014 1.4517006,1.4517005 45 0 1 -2.053015,0 1.4517006,1.4517005 45 0 1 0,-2.053014 1.4517006,1.4517005 45 0 1 2.053015,0 z"
       style="display:none;fill:#ffffff;fill-opacity:1;stroke-width:2.9034;stroke-linecap:round;stroke-linejoin:round;stroke-opacity:0.5;paint-order:stroke fill markers"
       id="path37" /><path
       d="m 23.203159,15.338188 a 1.4517006,1.4517005 45 0 1 0,2.053015 1.4517006,1.4517005 45 0 1 -2.053014,0 7.2585028,7.2585023 45 0 0 -10.265072,0 1.4517006,1.4517005 45 0 1 -2.0530148,0 1.4517006,1.4517005 45 0 1 0,-2.053015 1.4517006,1.4517005 45 0 1 0.150367,-0.130319 10.161904,10.161903 45 0 1 14.0663578,-0.004 1.4517006,1.4517005 45 0 1 0.154376,0.134328 z"
       style="display:none;fill:#ffffff;fill-opacity:1;stroke-width:2.9034;stroke-linecap:round;stroke-linejoin:round;stroke-opacity:0.5;paint-order:stroke fill markers"
       id="path36" /><path
       d="m 20.123638,18.41771 a 1.4517006,1.4517005 45 0 1 0,2.053015 1.4517006,1.4517005 45 0 1 -2.053014,0 2.9034011,2.9034009 45 0 0 -4.10603,0 1.4517006,1.4517005 45 0 1 -2.053015,0 1.4517006,1.4517005 45 0 1 0,-2.053015 1.4517006,1.4517005 45 0 1 0.152372,-0.132324 5.8068022,5.8068019 45 0 1 7.90531,-0.002 1.4517006,1.4517005 45 0 1 0.154377,0.134329 z"
       style="display:none;fill:#ffffff;fill-opacity:1;stroke-width:2.9034;stroke-linecap:round;stroke-linejoin:round;stroke-opacity:0.5;paint-order:stroke fill markers"
       id="path35" /><path
       d="m 26.282682,12.258666 a 1.4517006,1.4517005 45 0 1 0,2.053014 1.4517006,1.4517005 45 0 1 -2.053015,0 11.613604,11.613604 45 0 0 -16.424116,0 1.4517006,1.4517005 45 0 1 -2.0530146,0 1.4517006,1.4517005 45 0 1 0,-2.053014 1.4517006,1.4517005 45 0 1 0.1503668,-0.13032 14.517006,14.517005 45 0 1 20.2254018,-0.004 1.4517006,1.4517005 45 0 1 0.154377,0.134328 z"
       style="display:none;fill:#ffffff;fill-opacity:1;stroke-width:2.9034;stroke-linecap:round;stroke-linejoin:round;stroke-opacity:0.5;paint-order:stroke fill markers"
       id="path34" /><path
       style="baseline-shift:baseline;display:none;overflow:visible;opacity:1;fill:#ffffff;fill-opacity:1;stroke:#000000;stroke-width:4;stroke-linecap:round;stroke-linejoin:round;stroke-dasharray:none;stroke-opacity:0.5;paint-order:stroke fill markers;enable-background:accumulate;stop-color:#000000;stop-opacity:1"
       d="M 23.292969,7.2929687 7.2929687,23.292969 a 1,1 0 0 0 0,1.414062 1,1 0 0 0 1.4140626,0 L 24.707031,8.7070313 a 1,1 0 0 0 0,-1.4140626 1,1 0 0 0 -1.414062,0 z"
       id="path39" /><path
       style="baseline-shift:baseline;display:none;overflow:visible;opacity:1;fill:#ffffff;stroke:#000000;stroke-width:4;stroke-linecap:round;stroke-linejoin:round;stroke-dasharray:none;stroke-opacity:0.5;paint-order:stroke fill markers;enable-background:accumulate;stop-color:#000000;stop-opacity:1"
       d="m 16,7.9101561 c -2.681818,0 -5.363281,1.4229995 -5.363281,4.2714849 a 1,1 0 0 0 1,1 1,1 0 0 0 1,-1 c 0,-3.0303039 6.726562,-3.0303039 6.726562,0 0,1.848484 -0.776511,2.49763 -1.628906,2.923828 C 16.88198,15.531666 16,15.546875 16,15.546875 a 1.0001,1.0001 0 0 0 -1,1 V 18 a 1,1 0 0 0 1,1 1,1 0 0 0 1,-1 v -0.701172 c 0.498772,-0.0556 0.805166,0.0076 1.628906,-0.404297 1.329423,-0.664711 2.734375,-2.197739 2.734375,-4.71289 0,-2.8484854 -2.681463,-4.2714849 -5.363281,-4.2714849 z"
       id="path40" /></g></svg>
